<?xml version="1.0" encoding="UTF-8" standalone="no"?>
<svg
   xmlns:dc="http://purl.org/dc/elements/1.1/"
   xmlns:cc="http://creativecommons.org/ns#"
   xmlns:rdf="http://www.w3.org/1999/02/22-rdf-syntax-ns#"
   xmlns:svg="http://www.w3.org/2000/svg"
   xmlns="http://www.w3.org/2000/svg"
   viewBox="0 0 75 85"
   height="85"   width="75"
   id="svg2"   version="1.1">
 
  <defs     id="defs6" />
  <path
     id="path817"
     d="m 33.223364,80.191541 c -3.55315,-2.903986 -3.600942,-7.782686 -0.193435,-19.746006 1.520875,-8.186989 1.894683,-9.207801 2.428989,-14.235693 -3.812799,3.159497 -5.074532,4.072939 -9.781989,8.811467 C 17.35944,63.42899 14.779459,65.120504 10.26078,65.1286 3.4829324,65.14074 0.64628314,58.132442 5.3271768,52.939512 7.8951685,50.090607 11.592539,48.52379 20.830279,46.369832 c 10.033906,-2.339603 13.375623,-4.519564 13.375623,-4.519564 0,0 -8.351217,-2.486221 -14.347884,-3.968929 C 10.80942,35.644032 6.878904,33.970396 4.534819,31.691004 -1.2157663,26.099125 3.1054757,17.704807 10.369734,18.758465 c 4.074554,0.591002 9.501711,5.080588 16.149323,11.471253 5.554926,5.340212 5.962247,6.328088 9.345283,8.311507 C 35.579864,34.813366 35.405346,31.76102 33.083795,23.610356 30.308939,13.868191 30.074131,12.124942 31.08314,8.7571683 31.711888,6.6585974 33.070023,4.4900462 34.101219,3.938171 c 2.984814,-1.5974236 7.474062,-1.1674612 9.340171,0.8945596 2.990678,3.3046654 2.897234,8.6288184 -0.372105,21.2014054 -1.679825,6.459951 -2.841037,11.958552 -2.580473,12.219122 0.260565,0.26056 4.646472,-3.555886 9.74646,-8.480989 5.099989,-4.925113 9.906891,-8.895707 14.039757,-9.581116 8.179414,-1.356501 12.026542,6.571502 6.78321,12.723402 -1.798915,2.110633 -6.948974,3.193274 -19.895868,6.598912 -4.479906,1.17842 -8.145284,2.489524 -8.145284,2.913573 0,0.6822 3.841725,1.844467 19.537985,5.910969 5.856648,1.517313 10.176181,5.564374 10.291258,9.642092 0.124321,4.405216 -2.580491,7.156654 -7.027371,7.148499 -4.577813,-0.0079 -6.61172,-2.939373 -16.411601,-11.213786 -4.013865,-3.38906 -4.891488,-4.055713 -8.343875,-7.538545 0.791668,4.997107 1.094895,6.193702 2.683071,15.796915 1.863953,11.270759 2.61675,14.425309 -0.754581,17.796648 -2.412972,2.412969 -6.961208,2.516202 -9.768609,0.221709 z"
     style="fill:#000000;stroke-width:0.98730725" />

</svg>
